<svg width="1216" height="261" viewBox="0 0 1216 261" fill="none" xmlns="http://www.w3.org/2000/svg">
<path d="M34.4037 122.701H4.09207V106.484H81.6899V122.701H51.3783V215H34.4037V122.701ZM118.572 217.425C110.994 217.425 104.174 215.657 98.1115 212.12C92.1502 208.584 87.4519 203.734 84.0166 197.571C80.6823 191.306 79.0151 184.284 79.0151 176.504C79.0151 169.128 80.6318 162.308 83.865 156.044C87.1993 149.678 91.7966 144.626 97.6568 140.888C103.517 137.15 110.186 135.28 117.663 135.28C125.442 135.28 132.162 136.998 137.82 140.433C143.579 143.869 147.924 148.567 150.854 154.528C153.885 160.49 155.401 167.209 155.401 174.685C155.401 176.1 155.249 177.868 154.946 179.99H95.6866C96.2928 187.164 98.8188 192.721 103.264 196.661C107.811 200.501 113.065 202.421 119.027 202.421C123.775 202.421 127.867 201.36 131.303 199.238C134.839 197.015 137.668 194.034 139.79 190.296L153.885 196.965C150.248 203.33 145.499 208.331 139.638 211.969C133.778 215.606 126.756 217.425 118.572 217.425ZM138.426 167.259C138.224 164.531 137.365 161.854 135.849 159.227C134.334 156.499 132.01 154.225 128.878 152.406C125.847 150.588 122.108 149.678 117.663 149.678C112.307 149.678 107.761 151.295 104.022 154.528C100.385 157.66 97.8589 161.904 96.4443 167.259H138.426ZM195.572 217.425C190.015 217.425 185.064 216.364 180.719 214.242C176.374 212.019 172.99 208.938 170.565 204.997C168.14 200.956 166.927 196.409 166.927 191.357C166.927 183.375 169.908 177.06 175.869 172.412C181.931 167.764 189.56 165.44 198.754 165.44C203.301 165.44 207.393 165.895 211.031 166.804C214.668 167.613 217.548 168.522 219.67 169.533V165.592C219.67 160.843 217.901 157.004 214.365 154.074C210.829 151.042 206.282 149.527 200.725 149.527C196.784 149.527 193.046 150.386 189.509 152.103C186.074 153.821 183.296 156.195 181.174 159.227L169.504 150.285C172.939 145.536 177.385 141.848 182.841 139.221C188.297 136.594 194.359 135.28 201.028 135.28C212.243 135.28 220.882 138.059 226.944 143.616C233.007 149.072 236.038 156.802 236.038 166.804V215H219.67V205.755H218.912C216.689 209.089 213.557 211.868 209.515 214.091C205.474 216.314 200.826 217.425 195.572 217.425ZM198.451 203.633C202.493 203.633 206.13 202.673 209.364 200.754C212.597 198.834 215.123 196.257 216.941 193.024C218.76 189.791 219.67 186.305 219.67 182.567C217.346 181.253 214.618 180.192 211.485 179.384C208.454 178.575 205.271 178.171 201.937 178.171C195.673 178.171 191.076 179.434 188.145 181.96C185.215 184.385 183.75 187.568 183.75 191.508C183.75 195.045 185.114 197.975 187.842 200.299C190.57 202.522 194.107 203.633 198.451 203.633ZM254.206 137.705H270.119V147.86H270.877C273.201 144.121 276.485 141.09 280.729 138.766C284.972 136.442 289.519 135.28 294.369 135.28C299.926 135.28 304.776 136.594 308.918 139.221C313.061 141.747 316.042 145.132 317.86 149.375C320.487 145.132 323.973 141.747 328.318 139.221C332.764 136.594 337.967 135.28 343.928 135.28C352.82 135.28 359.539 138.008 364.086 143.464C368.733 148.82 371.057 156.145 371.057 165.44V215H354.386V168.32C354.386 156.6 349.384 150.739 339.382 150.739C334.027 150.739 329.631 152.912 326.196 157.256C322.761 161.601 321.043 166.956 321.043 173.321V215H304.372V168.32C304.372 156.6 299.219 150.739 288.913 150.739C283.659 150.739 279.314 152.912 275.879 157.256C272.544 161.601 270.877 166.956 270.877 173.321V215H254.206V137.705ZM423.418 106.484H442.818L483.587 215H464.794L455.094 187.265H411.294L401.442 215H382.649L423.418 106.484ZM449.335 171.503L437.816 139.221L433.573 126.642H432.663L428.42 139.221L416.901 171.503H449.335ZM495.738 137.705H511.651V147.86H512.409C514.632 144.323 517.916 141.343 522.26 138.918C526.605 136.493 531.505 135.28 536.962 135.28C543.933 135.28 550.248 137.049 555.906 140.585C561.564 144.121 566.01 149.022 569.243 155.286C572.578 161.449 574.245 168.472 574.245 176.353C574.245 184.234 572.578 191.306 569.243 197.571C566.01 203.734 561.564 208.584 555.906 212.12C550.248 215.657 543.933 217.425 536.962 217.425C531.505 217.425 526.605 216.212 522.26 213.788C517.916 211.363 514.632 208.432 512.409 204.997H511.651L512.409 215.758V247.737H495.738V137.705ZM534.537 202.118C538.578 202.118 542.367 201.057 545.903 198.935C549.44 196.813 552.269 193.782 554.391 189.841C556.513 185.901 557.573 181.405 557.573 176.353C557.573 171.301 556.513 166.855 554.391 163.016C552.269 159.075 549.44 156.044 545.903 153.922C542.367 151.8 538.578 150.739 534.537 150.739C530.495 150.739 526.706 151.8 523.17 153.922C519.734 156.044 516.956 159.075 514.834 163.016C512.712 166.855 511.651 171.301 511.651 176.353C511.651 181.405 512.712 185.901 514.834 189.841C516.956 193.782 519.734 196.813 523.17 198.935C526.706 201.057 530.495 202.118 534.537 202.118ZM625.662 217.425C617.882 217.425 610.91 215.657 604.747 212.12C598.584 208.483 593.784 203.532 590.349 197.268C586.914 191.003 585.196 184.032 585.196 176.353C585.196 168.674 586.914 161.702 590.349 155.438C593.784 149.173 598.584 144.273 604.747 140.736C610.91 137.099 617.882 135.28 625.662 135.28C633.442 135.28 640.414 137.099 646.577 140.736C652.741 144.374 657.54 149.325 660.975 155.589C664.411 161.854 666.128 168.775 666.128 176.353C666.128 184.032 664.411 191.003 660.975 197.268C657.54 203.532 652.741 208.483 646.577 212.12C640.414 215.657 633.442 217.425 625.662 217.425ZM625.662 202.118C629.906 202.118 633.846 201.107 637.484 199.086C641.121 196.965 644.001 193.984 646.123 190.144C648.345 186.204 649.457 181.607 649.457 176.353C649.457 171.099 648.345 166.552 646.123 162.712C644.001 158.873 641.121 155.943 637.484 153.922C633.846 151.8 629.906 150.739 625.662 150.739C621.419 150.739 617.478 151.8 613.841 153.922C610.203 155.943 607.273 158.873 605.05 162.712C602.928 166.552 601.868 171.099 601.868 176.353C601.868 181.607 602.928 186.204 605.05 190.144C607.273 193.984 610.203 196.965 613.841 199.086C617.478 201.107 621.419 202.118 625.662 202.118ZM719.15 106.484H731.881V153.467H787.957V106.484H800.688V215H787.957V165.592H731.881V215H719.15V106.484ZM848.956 217.425C839.66 217.425 832.537 214.697 827.586 209.241C822.736 203.785 820.312 196.156 820.312 186.355V137.705H833.194V184.385C833.194 191.761 834.861 197.167 838.195 200.602C841.53 204.037 846.026 205.755 851.684 205.755C856.029 205.755 859.868 204.593 863.202 202.269C866.638 199.945 869.265 196.914 871.084 193.176C873.003 189.437 873.963 185.497 873.963 181.354V137.705H886.846V215H874.569V203.785H873.963C871.841 207.624 868.457 210.857 863.809 213.484C859.161 216.111 854.21 217.425 848.956 217.425ZM945.127 217.425C939.267 217.425 933.962 216.111 929.213 213.484C924.565 210.756 921.08 207.473 918.756 203.633H918.149V215H905.873V106.484H918.756V138.463L918.149 149.224H918.756C921.08 145.283 924.565 141.999 929.213 139.372C933.962 136.644 939.267 135.28 945.127 135.28C951.997 135.28 958.262 137.049 963.92 140.585C969.578 144.121 974.024 149.022 977.257 155.286C980.49 161.55 982.107 168.573 982.107 176.353C982.107 184.234 980.49 191.306 977.257 197.571C974.024 203.734 969.578 208.584 963.92 212.12C958.262 215.657 951.997 217.425 945.127 217.425ZM943.611 205.755C948.057 205.755 952.25 204.542 956.191 202.118C960.131 199.693 963.263 196.257 965.587 191.812C968.012 187.265 969.225 182.112 969.225 176.353C969.225 170.593 968.012 165.491 965.587 161.045C963.263 156.499 960.131 153.013 956.191 150.588C952.25 148.163 948.057 146.95 943.611 146.95C939.166 146.95 934.972 148.163 931.032 150.588C927.091 153.013 923.959 156.448 921.635 160.894C919.311 165.339 918.149 170.492 918.149 176.353C918.149 182.213 919.311 187.366 921.635 191.812C923.959 196.257 927.091 199.693 931.032 202.118C934.972 204.542 939.166 205.755 943.611 205.755Z" fill="#1E1E1E"/>
<path d="M1046 100.004L1216 170V70.9963L1046 1V100.004Z" fill="#D8D8D8"/>
<mask id="mask0_18_7" style="mask-type:alpha" maskUnits="userSpaceOnUse" x="1046" y="0" width="170" height="169">
<path d="M1046 99.0037L1216 169V69.9963L1046 0V99.0037Z" fill="#B4B4B4"/>
</mask>
<g mask="url(#mask0_18_7)">
<g filter="url(#filter0_f_18_7)">
<path d="M1215 60.5L1221.5 77L1223 96.5L1097.5 132L1084.5 117L1215 60.5Z" fill="black" fill-opacity="0.18"/>
</g>
</g>
<path d="M1046 140.996L1216 71V170.004L1046 240V140.996Z" fill="#1E1E1E"/>
<mask id="mask1_18_7" style="mask-type:alpha" maskUnits="userSpaceOnUse" x="1046" y="71" width="170" height="169">
<path d="M1046 140.996L1216 71V170.004L1046 240V140.996Z" fill="#D9D9D9"/>
</mask>
<g mask="url(#mask1_18_7)">
<g filter="url(#filter1_f_18_7)">
<path d="M1086.01 142.197C1090.38 104.581 1210.07 76.5509 1269.37 67.2378L1283 202.165L1091.47 247.822C1087.83 228.287 1081.65 179.813 1086.01 142.197Z" fill="#518FF5"/>
<path d="M1084.05 135.071C1067.69 140.533 1064.06 110.948 1064.29 95.4734L1238.72 47L1266.65 101.618C1212.6 110.493 1100.4 129.61 1084.05 135.071Z" fill="#DE5347"/>
<path d="M1084.4 155.852C1078.98 168.944 1027.96 175.398 1003.13 176.989L995 111.533L1076.95 89.0325L1099.3 140.852C1096.59 140.397 1089.82 142.761 1084.4 155.852Z" fill="#F5BC1A"/>
<path d="M1083.71 143.519C1092.44 143.519 1101.89 215.829 1105.53 251.985L1012.12 264.946L1027.81 156.48C1042.8 152.16 1074.99 143.519 1083.71 143.519Z" fill="#27A768"/>
</g>
</g>
<path d="M83.3046 36.348L68.2037 45.0669C64.021 47.4819 62.5828 52.8331 65.0038 57.0218L65.0217 57.0637C67.4427 61.2464 72.7939 62.6846 76.9826 60.2637L101.899 45.8819C100.311 45.756 98.771 45.2766 97.3867 44.4797L83.3046 36.348ZM110.33 39.5599C107.903 43.7606 102.54 45.1987 98.3395 42.7718L68.2277 25.3879C64.027 22.9609 62.5888 17.5977 65.0098 13.397C67.4367 9.20236 72.8059 7.76419 77.0006 10.1851L107.118 27.5751C111.313 29.996 112.751 35.3652 110.33 39.5599ZM32.2073 34.0888L47.3022 25.3759C51.4909 22.9549 52.9231 17.6037 50.5081 13.421L50.4842 13.3791C48.0692 9.19038 42.712 7.75819 38.5233 10.1731L13.6129 24.5609C15.1949 24.6867 16.7409 25.1601 18.1252 25.9631L32.2073 34.0888ZM50.4962 57.0397C48.0692 61.2404 42.706 62.6786 38.5053 60.2517L8.38751 42.8677C4.19283 40.4408 2.75465 35.0776 5.17558 30.8769C7.60251 26.6822 12.9717 25.244 17.1664 27.665L47.2842 45.0549C51.4789 47.4759 52.9171 52.8451 50.4962 57.0397Z" fill="#1E1E1E"/>
<path d="M160.8 54.8C157.433 54.8 154.333 53.9833 151.5 52.35C148.667 50.7167 146.417 48.4667 144.75 45.6C143.083 42.7333 142.25 39.5667 142.25 36.1C142.25 32.6333 143.083 29.4667 144.75 26.6C146.417 23.7333 148.667 21.4833 151.5 19.85C154.333 18.2167 157.433 17.4 160.8 17.4C163.433 17.4 165.9 17.8667 168.2 18.8C170.533 19.7333 172.45 21.05 173.95 22.75L170.9 25.8C169.767 24.4 168.317 23.3333 166.55 22.6C164.783 21.8333 162.883 21.45 160.85 21.45C158.317 21.45 155.95 22.0667 153.75 23.3C151.583 24.5 149.833 26.2167 148.5 28.45C147.2 30.65 146.55 33.2 146.55 36.1C146.55 39 147.2 41.5667 148.5 43.8C149.833 46 151.6 47.7167 153.8 48.95C156 50.15 158.35 50.75 160.85 50.75C163.25 50.75 165.25 50.3833 166.85 49.65C168.483 48.8833 169.883 47.8833 171.05 46.65C171.917 45.7167 172.617 44.6 173.15 43.3C173.683 41.9667 174.017 40.5 174.15 38.9H160.9V34.95H178.1C178.267 35.8833 178.35 36.75 178.35 37.55C178.35 39.75 178 41.9 177.3 44C176.6 46.0667 175.483 47.8833 173.95 49.45C170.65 53.0167 166.267 54.8 160.8 54.8ZM194.83 54.8C192.33 54.8 190.08 54.2 188.08 53C186.08 51.8 184.513 50.1667 183.38 48.1C182.28 46.0333 181.73 43.75 181.73 41.25C181.73 38.75 182.28 36.4667 183.38 34.4C184.513 32.3333 186.08 30.7 188.08 29.5C190.08 28.3 192.33 27.7 194.83 27.7C197.33 27.7 199.58 28.3 201.58 29.5C203.58 30.7 205.13 32.3333 206.23 34.4C207.363 36.4667 207.93 38.75 207.93 41.25C207.93 43.75 207.363 46.0333 206.23 48.1C205.13 50.1667 203.58 51.8 201.58 53C199.58 54.2 197.33 54.8 194.83 54.8ZM194.83 50.95C196.396 50.95 197.846 50.5667 199.18 49.8C200.546 49 201.63 47.8667 202.43 46.4C203.263 44.9333 203.68 43.2167 203.68 41.25C203.68 39.2833 203.263 37.5667 202.43 36.1C201.63 34.6333 200.546 33.5167 199.18 32.75C197.846 31.95 196.396 31.55 194.83 31.55C193.263 31.55 191.796 31.95 190.43 32.75C189.063 33.5167 187.963 34.6333 187.13 36.1C186.33 37.5667 185.93 39.2833 185.93 41.25C185.93 43.2167 186.33 44.9333 187.13 46.4C187.963 47.8667 189.063 49 190.43 49.8C191.796 50.5667 193.263 50.95 194.83 50.95ZM224.115 54.8C221.615 54.8 219.365 54.2 217.365 53C215.365 51.8 213.798 50.1667 212.665 48.1C211.565 46.0333 211.015 43.75 211.015 41.25C211.015 38.75 211.565 36.4667 212.665 34.4C213.798 32.3333 215.365 30.7 217.365 29.5C219.365 28.3 221.615 27.7 224.115 27.7C226.615 27.7 228.865 28.3 230.865 29.5C232.865 30.7 234.415 32.3333 235.515 34.4C236.648 36.4667 237.215 38.75 237.215 41.25C237.215 43.75 236.648 46.0333 235.515 48.1C234.415 50.1667 232.865 51.8 230.865 53C228.865 54.2 226.615 54.8 224.115 54.8ZM224.115 50.95C225.682 50.95 227.132 50.5667 228.465 49.8C229.832 49 230.915 47.8667 231.715 46.4C232.548 44.9333 232.965 43.2167 232.965 41.25C232.965 39.2833 232.548 37.5667 231.715 36.1C230.915 34.6333 229.832 33.5167 228.465 32.75C227.132 31.95 225.682 31.55 224.115 31.55C222.548 31.55 221.082 31.95 219.715 32.75C218.348 33.5167 217.248 34.6333 216.415 36.1C215.615 37.5667 215.215 39.2833 215.215 41.25C215.215 43.2167 215.615 44.9333 216.415 46.4C217.248 47.8667 218.348 49 219.715 49.8C221.082 50.5667 222.548 50.95 224.115 50.95ZM252.85 65.6C249.85 65.6 247.367 64.9 245.4 63.5C243.467 62.1 242.167 60.4167 241.5 58.45L245.35 56.8C245.917 58.2667 246.85 59.45 248.15 60.35C249.483 61.2833 251.05 61.75 252.85 61.75C255.483 61.75 257.517 60.9833 258.95 59.45C260.417 57.9167 261.15 55.75 261.15 52.95V50.1H260.95C260.117 51.4 258.933 52.4667 257.4 53.3C255.9 54.1 254.183 54.5 252.25 54.5C250.05 54.5 248.033 53.9333 246.2 52.8C244.4 51.6667 242.967 50.0833 241.9 48.05C240.833 46.0167 240.3 43.7 240.3 41.1C240.3 38.5333 240.833 36.2333 241.9 34.2C242.967 32.1333 244.4 30.5333 246.2 29.4C248.033 28.2667 250.05 27.7 252.25 27.7C254.183 27.7 255.9 28.1167 257.4 28.95C258.933 29.75 260.117 30.8167 260.95 32.15H261.15V28.5H265.2V53C265.2 57.1 264.067 60.2167 261.8 62.35C259.533 64.5167 256.55 65.6 252.85 65.6ZM252.85 50.65C254.383 50.65 255.767 50.2667 257 49.5C258.267 48.7333 259.267 47.6333 260 46.2C260.767 44.7667 261.15 43.0667 261.15 41.1C261.15 39.1 260.767 37.3833 260 35.95C259.267 34.5167 258.267 33.4333 257 32.7C255.767 31.9333 254.383 31.55 252.85 31.55C251.317 31.55 249.917 31.9333 248.65 32.7C247.383 33.4667 246.367 34.5667 245.6 36C244.867 37.4333 244.5 39.1333 244.5 41.1C244.5 43.0667 244.867 44.7833 245.6 46.25C246.367 47.6833 247.383 48.7833 248.65 49.55C249.917 50.2833 251.317 50.65 252.85 50.65ZM270.984 18.2H275.234V54H270.984V18.2ZM292.137 54.8C289.703 54.8 287.52 54.2167 285.587 53.05C283.653 51.8833 282.137 50.2833 281.037 48.25C279.97 46.1833 279.437 43.8667 279.437 41.3C279.437 38.8333 279.937 36.5667 280.937 34.5C281.97 32.4333 283.42 30.7833 285.287 29.55C287.153 28.3167 289.32 27.7 291.787 27.7C294.287 27.7 296.453 28.2667 298.287 29.4C300.12 30.5 301.52 32.0333 302.487 34C303.487 35.9667 303.987 38.2167 303.987 40.75C303.987 41.25 303.937 41.6833 303.837 42.05H283.687C283.787 43.9833 284.253 45.6167 285.087 46.95C285.92 48.2833 286.97 49.2833 288.237 49.95C289.537 50.6167 290.887 50.95 292.287 50.95C295.553 50.95 298.07 49.4167 299.837 46.35L303.437 48.1C302.337 50.1667 300.837 51.8 298.937 53C297.07 54.2 294.803 54.8 292.137 54.8ZM299.487 38.55C299.42 37.4833 299.12 36.4167 298.587 35.35C298.053 34.2833 297.203 33.3833 296.037 32.65C294.903 31.9167 293.47 31.55 291.737 31.55C289.737 31.55 288.037 32.2 286.637 33.5C285.27 34.7667 284.37 36.45 283.937 38.55H299.487ZM320.432 18.2H331.232C334.898 18.2 338.098 18.9667 340.832 20.5C343.565 22 345.665 24.1 347.132 26.8C348.598 29.5 349.332 32.6 349.332 36.1C349.332 39.6 348.598 42.7 347.132 45.4C345.665 48.1 343.565 50.2167 340.832 51.75C338.098 53.25 334.898 54 331.232 54H320.432V18.2ZM331.232 49.95C335.465 49.95 338.815 48.7333 341.282 46.3C343.782 43.8667 345.032 40.4667 345.032 36.1C345.032 31.7333 343.782 28.3333 341.282 25.9C338.815 23.4667 335.465 22.25 331.232 22.25H324.632V49.95H331.232ZM364.855 54.8C362.422 54.8 360.239 54.2167 358.305 53.05C356.372 51.8833 354.855 50.2833 353.755 48.25C352.689 46.1833 352.155 43.8667 352.155 41.3C352.155 38.8333 352.655 36.5667 353.655 34.5C354.689 32.4333 356.139 30.7833 358.005 29.55C359.872 28.3167 362.039 27.7 364.505 27.7C367.005 27.7 369.172 28.2667 371.005 29.4C372.839 30.5 374.239 32.0333 375.205 34C376.205 35.9667 376.705 38.2167 376.705 40.75C376.705 41.25 376.655 41.6833 376.555 42.05H356.405C356.505 43.9833 356.972 45.6167 357.805 46.95C358.639 48.2833 359.689 49.2833 360.955 49.95C362.255 50.6167 363.605 50.95 365.005 50.95C368.272 50.95 370.789 49.4167 372.555 46.35L376.155 48.1C375.055 50.1667 373.555 51.8 371.655 53C369.789 54.2 367.522 54.8 364.855 54.8ZM372.205 38.55C372.139 37.4833 371.839 36.4167 371.305 35.35C370.772 34.2833 369.922 33.3833 368.755 32.65C367.622 31.9167 366.189 31.55 364.455 31.55C362.455 31.55 360.755 32.2 359.355 33.5C357.989 34.7667 357.089 36.45 356.655 38.55H372.205ZM377.891 28.5H382.441L390.341 49H390.441L398.441 28.5H402.891L392.491 54H388.191L377.891 28.5ZM416.492 54.8C414.059 54.8 411.876 54.2167 409.942 53.05C408.009 51.8833 406.492 50.2833 405.392 48.25C404.326 46.1833 403.792 43.8667 403.792 41.3C403.792 38.8333 404.292 36.5667 405.292 34.5C406.326 32.4333 407.776 30.7833 409.642 29.55C411.509 28.3167 413.676 27.7 416.142 27.7C418.642 27.7 420.809 28.2667 422.642 29.4C424.476 30.5 425.876 32.0333 426.842 34C427.842 35.9667 428.342 38.2167 428.342 40.75C428.342 41.25 428.292 41.6833 428.192 42.05H408.042C408.142 43.9833 408.609 45.6167 409.442 46.95C410.276 48.2833 411.326 49.2833 412.592 49.95C413.892 50.6167 415.242 50.95 416.642 50.95C419.909 50.95 422.426 49.4167 424.192 46.35L427.792 48.1C426.692 50.1667 425.192 51.8 423.292 53C421.426 54.2 419.159 54.8 416.492 54.8ZM423.842 38.55C423.776 37.4833 423.476 36.4167 422.942 35.35C422.409 34.2833 421.559 33.3833 420.392 32.65C419.259 31.9167 417.826 31.55 416.092 31.55C414.092 31.55 412.392 32.2 410.992 33.5C409.626 34.7667 408.726 36.45 408.292 38.55H423.842ZM432.816 18.2H437.066V54H432.816V18.2ZM454.369 54.8C451.869 54.8 449.619 54.2 447.619 53C445.619 51.8 444.052 50.1667 442.919 48.1C441.819 46.0333 441.269 43.75 441.269 41.25C441.269 38.75 441.819 36.4667 442.919 34.4C444.052 32.3333 445.619 30.7 447.619 29.5C449.619 28.3 451.869 27.7 454.369 27.7C456.869 27.7 459.119 28.3 461.119 29.5C463.119 30.7 464.669 32.3333 465.769 34.4C466.902 36.4667 467.469 38.75 467.469 41.25C467.469 43.75 466.902 46.0333 465.769 48.1C464.669 50.1667 463.119 51.8 461.119 53C459.119 54.2 456.869 54.8 454.369 54.8ZM454.369 50.95C455.935 50.95 457.385 50.5667 458.719 49.8C460.085 49 461.169 47.8667 461.969 46.4C462.802 44.9333 463.219 43.2167 463.219 41.25C463.219 39.2833 462.802 37.5667 461.969 36.1C461.169 34.6333 460.085 33.5167 458.719 32.75C457.385 31.95 455.935 31.55 454.369 31.55C452.802 31.55 451.335 31.95 449.969 32.75C448.602 33.5167 447.502 34.6333 446.669 36.1C445.869 37.5667 445.469 39.2833 445.469 41.25C445.469 43.2167 445.869 44.9333 446.669 46.4C447.502 47.8667 448.602 49 449.969 49.8C451.335 50.5667 452.802 50.95 454.369 50.95ZM471.46 28.5H475.51V32.3H475.71C476.476 31 477.626 29.9167 479.16 29.05C480.726 28.15 482.476 27.7 484.41 27.7C486.676 27.7 488.743 28.2833 490.61 29.45C492.476 30.6167 493.943 32.2333 495.01 34.3C496.076 36.3667 496.61 38.6833 496.61 41.25C496.61 43.85 496.076 46.1833 495.01 48.25C493.943 50.2833 492.476 51.8833 490.61 53.05C488.743 54.2167 486.676 54.8 484.41 54.8C482.476 54.8 480.726 54.3667 479.16 53.5C477.626 52.6 476.476 51.5167 475.71 50.25H475.51L475.71 53.75V64.8H471.46V28.5ZM483.91 50.95C485.376 50.95 486.76 50.55 488.06 49.75C489.36 48.95 490.393 47.8167 491.16 46.35C491.96 44.85 492.36 43.15 492.36 41.25C492.36 39.35 491.96 37.6667 491.16 36.2C490.393 34.7 489.36 33.55 488.06 32.75C486.76 31.95 485.376 31.55 483.91 31.55C482.443 31.55 481.06 31.95 479.76 32.75C478.46 33.55 477.426 34.6833 476.66 36.15C475.893 37.6167 475.51 39.3167 475.51 41.25C475.51 43.1833 475.893 44.8833 476.66 46.35C477.426 47.8167 478.46 48.95 479.76 49.75C481.06 50.55 482.443 50.95 483.91 50.95ZM512.393 54.8C509.959 54.8 507.776 54.2167 505.843 53.05C503.909 51.8833 502.393 50.2833 501.293 48.25C500.226 46.1833 499.693 43.8667 499.693 41.3C499.693 38.8333 500.193 36.5667 501.193 34.5C502.226 32.4333 503.676 30.7833 505.543 29.55C507.409 28.3167 509.576 27.7 512.043 27.7C514.543 27.7 516.709 28.2667 518.543 29.4C520.376 30.5 521.776 32.0333 522.743 34C523.743 35.9667 524.243 38.2167 524.243 40.75C524.243 41.25 524.193 41.6833 524.093 42.05H503.943C504.043 43.9833 504.509 45.6167 505.343 46.95C506.176 48.2833 507.226 49.2833 508.493 49.95C509.793 50.6167 511.143 50.95 512.543 50.95C515.809 50.95 518.326 49.4167 520.093 46.35L523.693 48.1C522.593 50.1667 521.093 51.8 519.193 53C517.326 54.2 515.059 54.8 512.393 54.8ZM519.743 38.55C519.676 37.4833 519.376 36.4167 518.843 35.35C518.309 34.2833 517.459 33.3833 516.293 32.65C515.159 31.9167 513.726 31.55 511.993 31.55C509.993 31.55 508.293 32.2 506.893 33.5C505.526 34.7667 504.626 36.45 504.193 38.55H519.743ZM528.716 28.5H532.766V32.6H532.966C533.466 31.2 534.433 30.05 535.866 29.15C537.3 28.2167 538.8 27.75 540.366 27.75C541.533 27.75 542.533 27.9167 543.366 28.25V32.85C542.3 32.3167 541.1 32.05 539.766 32.05C538.533 32.05 537.4 32.4 536.366 33.1C535.333 33.8 534.5 34.75 533.866 35.95C533.266 37.1167 532.966 38.3833 532.966 39.75V54H528.716V28.5ZM574.761 54.8C571.394 54.8 568.294 53.9833 565.461 52.35C562.628 50.7167 560.378 48.4667 558.711 45.6C557.044 42.7333 556.211 39.5667 556.211 36.1C556.211 32.6333 557.044 29.4667 558.711 26.6C560.378 23.7333 562.628 21.4833 565.461 19.85C568.294 18.2167 571.394 17.4 574.761 17.4C577.394 17.4 579.861 17.8667 582.161 18.8C584.494 19.7333 586.411 21.05 587.911 22.75L584.861 25.8C583.728 24.4 582.278 23.3333 580.511 22.6C578.744 21.8333 576.844 21.45 574.811 21.45C572.278 21.45 569.911 22.0667 567.711 23.3C565.544 24.5 563.794 26.2167 562.461 28.45C561.161 30.65 560.511 33.2 560.511 36.1C560.511 39 561.161 41.5667 562.461 43.8C563.794 46 565.561 47.7167 567.761 48.95C569.961 50.15 572.311 50.75 574.811 50.75C577.211 50.75 579.211 50.3833 580.811 49.65C582.444 48.8833 583.844 47.8833 585.011 46.65C585.878 45.7167 586.578 44.6 587.111 43.3C587.644 41.9667 587.978 40.5 588.111 38.9H574.861V34.95H592.061C592.228 35.8833 592.311 36.75 592.311 37.55C592.311 39.75 591.961 41.9 591.261 44C590.561 46.0667 589.444 47.8833 587.911 49.45C584.611 53.0167 580.228 54.8 574.761 54.8ZM596.308 28.5H600.358V32.6H600.558C601.058 31.2 602.025 30.05 603.458 29.15C604.892 28.2167 606.392 27.75 607.958 27.75C609.125 27.75 610.125 27.9167 610.958 28.25V32.85C609.892 32.3167 608.692 32.05 607.358 32.05C606.125 32.05 604.992 32.4 603.958 33.1C602.925 33.8 602.092 34.75 601.458 35.95C600.858 37.1167 600.558 38.3833 600.558 39.75V54H596.308V28.5ZM624.795 54.8C622.295 54.8 620.045 54.2 618.045 53C616.045 51.8 614.478 50.1667 613.345 48.1C612.245 46.0333 611.695 43.75 611.695 41.25C611.695 38.75 612.245 36.4667 613.345 34.4C614.478 32.3333 616.045 30.7 618.045 29.5C620.045 28.3 622.295 27.7 624.795 27.7C627.295 27.7 629.545 28.3 631.545 29.5C633.545 30.7 635.095 32.3333 636.195 34.4C637.328 36.4667 637.895 38.75 637.895 41.25C637.895 43.75 637.328 46.0333 636.195 48.1C635.095 50.1667 633.545 51.8 631.545 53C629.545 54.2 627.295 54.8 624.795 54.8ZM624.795 50.95C626.361 50.95 627.811 50.5667 629.145 49.8C630.511 49 631.595 47.8667 632.395 46.4C633.228 44.9333 633.645 43.2167 633.645 41.25C633.645 39.2833 633.228 37.5667 632.395 36.1C631.595 34.6333 630.511 33.5167 629.145 32.75C627.811 31.95 626.361 31.55 624.795 31.55C623.228 31.55 621.761 31.95 620.395 32.75C619.028 33.5167 617.928 34.6333 617.095 36.1C616.295 37.5667 615.895 39.2833 615.895 41.25C615.895 43.2167 616.295 44.9333 617.095 46.4C617.928 47.8667 619.028 49 620.395 49.8C621.761 50.5667 623.228 50.95 624.795 50.95ZM651.336 54.8C648.269 54.8 645.919 53.9 644.286 52.1C642.686 50.3 641.886 47.7833 641.886 44.55V28.5H646.136V43.9C646.136 46.3333 646.686 48.1167 647.786 49.25C648.886 50.3833 650.369 50.95 652.236 50.95C653.669 50.95 654.936 50.5667 656.036 49.8C657.169 49.0333 658.036 48.0333 658.636 46.8C659.269 45.5667 659.586 44.2667 659.586 42.9V28.5H663.836V54H659.786V50.3H659.586C658.886 51.5667 657.769 52.6333 656.236 53.5C654.702 54.3667 653.069 54.8 651.336 54.8ZM669.413 28.5H673.463V32.3H673.663C674.43 31 675.58 29.9167 677.113 29.05C678.68 28.15 680.43 27.7 682.363 27.7C684.63 27.7 686.696 28.2833 688.563 29.45C690.43 30.6167 691.896 32.2333 692.963 34.3C694.03 36.3667 694.563 38.6833 694.563 41.25C694.563 43.85 694.03 46.1833 692.963 48.25C691.896 50.2833 690.43 51.8833 688.563 53.05C686.696 54.2167 684.63 54.8 682.363 54.8C680.43 54.8 678.68 54.3667 677.113 53.5C675.58 52.6 674.43 51.5167 673.663 50.25H673.463L673.663 53.75V64.8H669.413V28.5ZM681.863 50.95C683.33 50.95 684.713 50.55 686.013 49.75C687.313 48.95 688.346 47.8167 689.113 46.35C689.913 44.85 690.313 43.15 690.313 41.25C690.313 39.35 689.913 37.6667 689.113 36.2C688.346 34.7 687.313 33.55 686.013 32.75C684.713 31.95 683.33 31.55 681.863 31.55C680.396 31.55 679.013 31.95 677.713 32.75C676.413 33.55 675.38 34.6833 674.613 36.15C673.846 37.6167 673.463 39.3167 673.463 41.25C673.463 43.1833 673.846 44.8833 674.613 46.35C675.38 47.8167 676.413 48.95 677.713 49.75C679.013 50.55 680.396 50.95 681.863 50.95ZM710.967 18.2H721.767C725.433 18.2 728.633 18.9667 731.367 20.5C734.1 22 736.2 24.1 737.667 26.8C739.133 29.5 739.867 32.6 739.867 36.1C739.867 39.6 739.133 42.7 737.667 45.4C736.2 48.1 734.1 50.2167 731.367 51.75C728.633 53.25 725.433 54 721.767 54H710.967V18.2ZM721.767 49.95C726 49.95 729.35 48.7333 731.817 46.3C734.317 43.8667 735.567 40.4667 735.567 36.1C735.567 31.7333 734.317 28.3333 731.817 25.9C729.35 23.4667 726 22.25 721.767 22.25H715.167V49.95H721.767ZM752.923 54.8C751.056 54.8 749.39 54.4333 747.923 53.7C746.456 52.9667 745.323 51.9667 744.523 50.7C743.723 49.4 743.323 47.9333 743.323 46.3C743.323 43.6 744.34 41.5 746.373 40C748.406 38.4667 750.973 37.7 754.073 37.7C755.606 37.7 757.023 37.8667 758.323 38.2C759.656 38.5333 760.673 38.9167 761.373 39.35V37.8C761.373 35.9 760.706 34.3833 759.373 33.25C758.04 32.0833 756.356 31.5 754.323 31.5C752.89 31.5 751.573 31.8167 750.373 32.45C749.173 33.05 748.223 33.9 747.523 35L744.323 32.6C745.323 31.0667 746.69 29.8667 748.423 29C750.19 28.1333 752.14 27.7 754.273 27.7C757.74 27.7 760.456 28.6167 762.423 30.45C764.423 32.25 765.423 34.7167 765.423 37.85V54H761.373V50.35H761.173C760.44 51.5833 759.34 52.6333 757.873 53.5C756.406 54.3667 754.756 54.8 752.923 54.8ZM753.323 51.05C754.756 51.05 756.09 50.6833 757.323 49.95C758.556 49.2167 759.54 48.2333 760.273 47C761.006 45.7667 761.373 44.4167 761.373 42.95C760.573 42.4167 759.59 41.9833 758.423 41.65C757.256 41.3167 756.023 41.15 754.723 41.15C752.39 41.15 750.623 41.6333 749.423 42.6C748.256 43.5667 747.673 44.8167 747.673 46.35C747.673 47.75 748.206 48.8833 749.273 49.75C750.34 50.6167 751.69 51.05 753.323 51.05ZM767.547 28.5H772.097L779.997 49H780.097L788.097 28.5H792.547L782.147 54H777.847L767.547 28.5ZM803.193 54.8C801.326 54.8 799.659 54.4333 798.193 53.7C796.726 52.9667 795.593 51.9667 794.793 50.7C793.993 49.4 793.593 47.9333 793.593 46.3C793.593 43.6 794.609 41.5 796.643 40C798.676 38.4667 801.243 37.7 804.343 37.7C805.876 37.7 807.293 37.8667 808.593 38.2C809.926 38.5333 810.943 38.9167 811.643 39.35V37.8C811.643 35.9 810.976 34.3833 809.643 33.25C808.309 32.0833 806.626 31.5 804.593 31.5C803.159 31.5 801.843 31.8167 800.643 32.45C799.443 33.05 798.493 33.9 797.793 35L794.593 32.6C795.593 31.0667 796.959 29.8667 798.693 29C800.459 28.1333 802.409 27.7 804.543 27.7C808.009 27.7 810.726 28.6167 812.693 30.45C814.693 32.25 815.693 34.7167 815.693 37.85V54H811.643V50.35H811.443C810.709 51.5833 809.609 52.6333 808.143 53.5C806.676 54.3667 805.026 54.8 803.193 54.8ZM803.593 51.05C805.026 51.05 806.359 50.6833 807.593 49.95C808.826 49.2167 809.809 48.2333 810.543 47C811.276 45.7667 811.643 44.4167 811.643 42.95C810.843 42.4167 809.859 41.9833 808.693 41.65C807.526 41.3167 806.293 41.15 804.993 41.15C802.659 41.15 800.893 41.6333 799.693 42.6C798.526 43.5667 797.943 44.8167 797.943 46.35C797.943 47.75 798.476 48.8833 799.543 49.75C800.609 50.6167 801.959 51.05 803.593 51.05ZM832.611 54.8C830.111 54.8 827.861 54.2 825.861 53C823.861 51.8 822.294 50.1667 821.161 48.1C820.061 46.0333 819.511 43.75 819.511 41.25C819.511 38.75 820.061 36.4667 821.161 34.4C822.294 32.3333 823.861 30.7 825.861 29.5C827.861 28.3 830.111 27.7 832.611 27.7C835.111 27.7 837.361 28.3 839.361 29.5C841.361 30.7 842.911 32.3333 844.011 34.4C845.144 36.4667 845.711 38.75 845.711 41.25C845.711 43.75 845.144 46.0333 844.011 48.1C842.911 50.1667 841.361 51.8 839.361 53C837.361 54.2 835.111 54.8 832.611 54.8ZM832.611 50.95C834.178 50.95 835.628 50.5667 836.961 49.8C838.328 49 839.411 47.8667 840.211 46.4C841.044 44.9333 841.461 43.2167 841.461 41.25C841.461 39.2833 841.044 37.5667 840.211 36.1C839.411 34.6333 838.328 33.5167 836.961 32.75C835.628 31.95 834.178 31.55 832.611 31.55C831.044 31.55 829.578 31.95 828.211 32.75C826.844 33.5167 825.744 34.6333 824.911 36.1C824.111 37.5667 823.711 39.2833 823.711 41.25C823.711 43.2167 824.111 44.9333 824.911 46.4C825.744 47.8667 826.844 49 828.211 49.8C829.578 50.5667 831.044 50.95 832.611 50.95Z" fill="#1E1E1E"/>
<defs>
<filter id="filter0_f_18_7" x="1063.5" y="39.5" width="180.5" height="113.5" filterUnits="userSpaceOnUse" color-interpolation-filters="sRGB">
<feFlood flood-opacity="0" result="BackgroundImageFix"/>
<feBlend mode="normal" in="SourceGraphic" in2="BackgroundImageFix" result="shape"/>
<feGaussianBlur stdDeviation="10.5" result="effect1_foregroundBlur_18_7"/>
</filter>
<filter id="filter1_f_18_7" x="944.4" y="-3.6" width="389.2" height="319.146" filterUnits="userSpaceOnUse" color-interpolation-filters="sRGB">
<feFlood flood-opacity="0" result="BackgroundImageFix"/>
<feBlend mode="normal" in="SourceGraphic" in2="BackgroundImageFix" result="shape"/>
<feGaussianBlur stdDeviation="25.3" result="effect1_foregroundBlur_18_7"/>
</filter>
</defs>
</svg>
