<svg width="584" height="319" viewBox="0 0 584 319" fill="none" xmlns="http://www.w3.org/2000/svg">
<path d="M247.856 26.1478C268.09 54.2988 261.668 93.5228 233.517 113.757L99.4183 210.132C71.2621 230.367 32.0381 223.945 11.8037 195.788C-8.42544 167.637 -2.00877 128.413 26.1475 108.179L160.246 11.804C188.403 -8.43034 227.627 -2.00846 247.856 26.1478Z" fill="#EA4335"/>
<path d="M11.804 122.538C-8.43034 150.695 -2.00846 189.919 26.1478 210.153L160.247 306.528C188.398 326.757 227.627 320.335 247.856 292.184C268.091 264.033 261.669 224.804 233.518 204.575L99.4134 108.2C71.2624 87.9655 32.0384 94.3874 11.804 122.538Z" fill="#4285F4"/>
<path d="M571.898 122.538C592.127 150.695 585.711 189.919 557.554 210.153L423.455 306.528C395.299 326.757 356.075 320.335 335.841 292.184C315.612 264.033 322.028 224.804 350.185 204.575L484.284 108.2C512.44 87.9655 551.664 94.3874 571.898 122.538Z" fill="#F9AB00"/>
<path d="M335.839 26.1478C315.61 54.2988 322.032 93.5228 350.183 113.757L484.282 210.132C512.438 230.367 551.662 223.945 571.897 195.788C592.126 167.637 585.709 128.413 557.553 108.179L423.454 11.804C395.298 -8.43034 356.074 -2.00846 335.839 26.1478Z" fill="#34A853"/>
</svg>
